<?xml version="1.0" standalone="no"?><!DOCTYPE svg PUBLIC "-//W3C//DTD SVG 1.1//EN" "http://www.w3.org/Graphics/SVG/1.1/DTD/svg11.dtd"><svg width="100%" height="100%" viewBox="0 0 45 19" version="1.1" xmlns="http://www.w3.org/2000/svg" xmlns:xlink="http://www.w3.org/1999/xlink" xml:space="preserve" style="fill-rule:evenodd;clip-rule:evenodd;stroke-linecap:round;stroke-linejoin:round;stroke-miterlimit:1.41421;"><path d="M18.165,7.69c0,-3.886 -3.924,-7.04 -8.758,-7.04c-4.833,0 -8.757,3.154 -8.757,7.04c0.729,-2.915 4.402,-5.28 8.757,-5.28c4.355,0 8.028,2.365 8.758,5.28Z" style="fill:#000;stroke-width:0.75px;stroke:#000;"/><path d="M44.003,7.69c0,-3.886 -3.924,-7.04 -8.757,-7.04c-4.834,0 -8.758,3.154 -8.758,7.04c0.729,-2.915 4.403,-5.28 8.758,-5.28c4.355,0 8.028,2.365 8.757,5.28Z" style="fill:#000;stroke-width:0.75px;stroke:#000;"/><ellipse cx="10.058" cy="9.04" rx="4.911" ry="3.908" style="fill:none;stroke-width:0.75px;stroke:#000;"/><ellipse cx="10.058" cy="8.748" rx="2.456" ry="3.616" style="fill:#000;stroke-width:0.75px;stroke:#000;"/><ellipse cx="35.574" cy="8.748" rx="4.911" ry="3.616" style="fill:none;stroke-width:0.75px;stroke:#000;"/><ellipse cx="35.705" cy="8.456" rx="2.456" ry="3.324" style="fill:#000;stroke-width:0.75px;stroke:#000;"/><path d="M35.996,17.581l-1.142,-4.999l2.283,0l-1.141,4.999Z" style="fill:#000;stroke-width:0.75px;stroke:#000;"/><path d="M10.157,17.581l-1.141,-4.999l2.283,0l-1.142,4.999Z" style="fill:#000;stroke-width:0.75px;stroke:#000;"/></svg>