<?xml version="1.0" standalone="no"?>
<!DOCTYPE svg PUBLIC "-//W3C//DTD SVG 1.1//EN" "http://www.w3.org/Graphics/SVG/1.1/DTD/svg11.dtd">
<svg width="100%" height="100%" viewBox="0 0 51 49" version="1.1" xmlns="http://www.w3.org/2000/svg" xmlns:xlink="http://www.w3.org/1999/xlink" xml:space="preserve" style="fill-rule:evenodd;clip-rule:evenodd;stroke-linejoin:round;stroke-miterlimit:1.41421;">
    <g transform="matrix(-0.475374,0.610966,-1.06749,-0.830583,82.7422,32.1255)">
        <path d="M41.861,37.315C38.416,37.315 35.619,41.521 35.619,46.702C35.619,51.883 38.416,56.09 41.861,56.09C40.827,53.899 39.988,50.447 39.988,46.702C39.988,42.957 40.827,39.505 41.861,37.315Z" style="fill:black;"/>
    </g>
    <g transform="matrix(0.475374,0.610966,1.06749,-0.830583,-32.5978,32.1255)">
        <path d="M41.861,37.315C38.416,37.315 35.619,41.521 35.619,46.702C35.619,51.883 38.416,56.09 41.861,56.09C40.999,53.743 40.3,50.344 40.3,46.702C40.3,43.06 40.999,39.661 41.861,37.315Z" style="fill:black;"/>
    </g>
    <g transform="matrix(1.05191,0,0,1,0.470266,-31.5193)">
        <ellipse cx="36.759" cy="56.071" rx="7.802" ry="9.882" style="fill:black;"/>
    </g>
    <g transform="matrix(1.05191,0,0,1,-28.2924,-31.5193)">
        <ellipse cx="36.759" cy="56.071" rx="7.802" ry="9.882" style="fill:black;"/>
    </g>
    <g transform="matrix(1,0,0,-1,-27.7971,114.97)">
        <path d="M38.172,66.483L40.726,82.536L35.619,82.536L38.172,66.483Z" style="fill:black;"/>
    </g>
    <g transform="matrix(1,0,0,1,-27.7971,-66.4831)">
        <path d="M38.172,66.483L40.726,82.536L35.619,82.536L38.172,66.483Z" style="fill:black;"/>
    </g>
    <g transform="matrix(1,0,0,1,0.965582,-66.4831)">
        <path d="M38.172,66.483L40.726,82.536L35.619,82.536L38.172,66.483Z" style="fill:black;"/>
    </g>
    <g transform="matrix(1,0,0,-1,0.965582,114.97)">
        <path d="M38.172,66.483L40.726,82.536L35.619,82.536L38.172,66.483Z" style="fill:black;"/>
    </g>
</svg>
