<?xml version="1.0" standalone="no"?><!DOCTYPE svg PUBLIC "-//W3C//DTD SVG 1.1//EN" "http://www.w3.org/Graphics/SVG/1.1/DTD/svg11.dtd"><svg width="100%" height="100%" viewBox="0 0 35 24" version="1.1" xmlns="http://www.w3.org/2000/svg" xmlns:xlink="http://www.w3.org/1999/xlink" xml:space="preserve" style="fill-rule:evenodd;clip-rule:evenodd;stroke-linecap:round;stroke-linejoin:round;stroke-miterlimit:1.41421;"><ellipse cx="7.336" cy="18.852" rx="4.911" ry="2.003" style="fill:none;stroke-width:0.75px;stroke:#000;"/><ellipse cx="27.58" cy="18.852" rx="4.911" ry="2.003" style="fill:none;stroke-width:0.75px;stroke:#000;"/><ellipse cx="27.58" cy="20.512" rx="2.456" ry="1.66" style="fill:#000;stroke-width:0.75px;stroke:#000;"/><ellipse cx="7.336" cy="20.512" rx="2.456" ry="1.66" style="fill:#000;stroke-width:0.75px;stroke:#000;"/><path d="M14.023,11.933c0,-6.228 -2.997,-11.283 -6.687,-11.283c-3.69,0 -6.686,5.055 -6.686,11.283c0.557,-4.671 3.361,-8.463 6.686,-8.463c3.325,0 6.129,3.792 6.687,8.463Z" style="fill:#000;stroke-width:0.75px;stroke:#000;"/><path d="M34.267,11.933c0,-6.228 -2.996,-11.283 -6.687,-11.283c-3.69,0 -6.686,5.055 -6.686,11.283c0.557,-4.671 3.361,-8.463 6.686,-8.463c3.325,0 6.13,3.792 6.687,8.463Z" style="fill:#000;stroke-width:0.75px;stroke:#000;"/><rect x="5.687" y="6.786" width="3.299" height="4.897" style="fill:#000;"/><rect x="25.931" y="7.03" width="3.299" height="4.897" style="fill:#000;"/></svg>