<?xml version="1.0" standalone="no"?><!DOCTYPE svg PUBLIC "-//W3C//DTD SVG 1.1//EN" "http://www.w3.org/Graphics/SVG/1.1/DTD/svg11.dtd"><svg width="100%" height="100%" viewBox="0 0 31 14" version="1.1" xmlns="http://www.w3.org/2000/svg" xmlns:xlink="http://www.w3.org/1999/xlink" xml:space="preserve" style="fill-rule:evenodd;clip-rule:evenodd;stroke-linecap:round;stroke-linejoin:round;stroke-miterlimit:1.41421;"><path d="M11.191,0.65l0.307,3.453l-10.848,6.544c0,0 1.568,-2.94 2.618,-4.908c0.601,-1.127 1.538,-2.039 2.681,-2.609c1.992,-0.995 4.967,-2.48 4.967,-2.48" style="fill:#000;stroke-width:0.75px;stroke:#000;"/><path d="M17.424,0.65l0,3.259l12.572,5.084c0,0 -2.497,-3.136 -4.031,-5.062c-0.759,-0.954 -1.813,-1.629 -2.996,-1.919c-2.183,-0.536 -5.545,-1.362 -5.545,-1.362Z" style="fill:#000;stroke-width:0.75px;stroke:#000;"/><path d="M12.437,9.186c0,0 -4.695,0.047 -6.329,0.063c-0.353,0.003 -0.688,0.153 -0.928,0.412c-0.824,0.893 -2.721,2.951 -2.721,2.951l3.096,-0.829l6.882,-2.597Z" style="fill:none;stroke-width:0.75px;stroke:#000;"/><path d="M17.424,9.273c0,0 2.849,0.865 4.026,1.222c0.331,0.101 0.675,0.152 1.022,0.152c1.378,0 5.011,0 5.011,0c0,0 -2.464,-0.897 -3.41,-1.242c-0.24,-0.087 -0.494,-0.132 -0.75,-0.132c-1.369,0 -5.899,0 -5.899,0" style="fill:none;stroke-width:0.75px;stroke:#000;"/><ellipse cx="6.408" cy="10.303" rx="1.04" ry="1.03" style="fill:#000;"/><ellipse cx="22.974" cy="10.042" rx="0.52" ry="0.856" style="fill:#000;"/></svg>