<?xml version="1.0" standalone="no"?><!DOCTYPE svg PUBLIC "-//W3C//DTD SVG 1.1//EN" "http://www.w3.org/Graphics/SVG/1.1/DTD/svg11.dtd"><svg width="100%" height="100%" viewBox="0 0 41 21" version="1.1" xmlns="http://www.w3.org/2000/svg" xmlns:xlink="http://www.w3.org/1999/xlink" xml:space="preserve" style="fill-rule:evenodd;clip-rule:evenodd;stroke-linecap:round;stroke-linejoin:round;stroke-miterlimit:1.41421;"><path d="M14.023,7.69c0,-3.886 -2.997,-7.04 -6.687,-7.04c-3.69,0 -6.686,3.154 -6.686,7.04c0.557,-2.915 3.361,-5.28 6.686,-5.28c3.325,0 6.129,2.365 6.687,5.28Z" style="fill:#000;stroke-width:0.75px;stroke:#000;"/><path d="M39.978,7.69c0,-3.886 -2.997,-7.04 -6.687,-7.04c-3.69,0 -6.686,3.154 -6.686,7.04c0.557,-2.915 3.361,-5.28 6.686,-5.28c3.325,0 6.129,2.365 6.687,5.28Z" style="fill:#000;stroke-width:0.75px;stroke:#000;"/><ellipse cx="7.336" cy="10.851" rx="4.911" ry="2.925" style="fill:none;stroke-width:0.75px;stroke:#000;"/><ellipse cx="7.336" cy="10.851" rx="2.456" ry="2.341" style="fill:#000;stroke-width:0.75px;stroke:#000;"/><ellipse cx="32.852" cy="10.267" rx="4.911" ry="2.925" style="fill:none;stroke-width:0.75px;stroke:#000;"/><ellipse cx="32.983" cy="10.267" rx="2.456" ry="2.341" style="fill:#000;stroke-width:0.75px;stroke:#000;"/><path d="M7.336,19.506l-1.228,-5.73l2.456,0l-1.228,5.73Z" style="fill:#000;stroke-width:0.75px;stroke:#000;"/><path d="M33.024,18.922l-1.228,-5.73l2.456,0l-1.228,5.73Z" style="fill:#000;stroke-width:0.75px;stroke:#000;"/></svg>