<?xml version="1.0" standalone="no"?><!DOCTYPE svg PUBLIC "-//W3C//DTD SVG 1.1//EN" "http://www.w3.org/Graphics/SVG/1.1/DTD/svg11.dtd"><svg width="100%" height="100%" viewBox="0 0 53 34" version="1.1" xmlns="http://www.w3.org/2000/svg" xmlns:xlink="http://www.w3.org/1999/xlink" xml:space="preserve" style="fill-rule:evenodd;clip-rule:evenodd;stroke-linecap:round;stroke-linejoin:round;stroke-miterlimit:1.41421;"><path d="M38.335,3.029c1.751,1.581 -0.872,-0.033 0.03,1.259c0.844,1.209 -2.393,6.143 -3.223,6.497c-0.667,0.285 -0.613,-0.469 -1.201,-0.213c-0.432,0.188 -1.135,1.055 -1.604,1.055c-1.674,0 -3.252,0.708 -4.784,1.154c-1.165,0.34 -2.295,-0.451 -3.387,0.026c-0.422,0.185 -4.013,0.195 -4.471,0.314c-4.073,1.064 -5.076,-4.237 -8.191,-1.524c-2.108,1.837 -5.732,6.297 -5.701,8.813c0.011,0.924 -1.175,1.016 -1.65,1.847c-0.415,0.725 -0.598,3.441 -0.736,4.287c-0.331,2.018 0.719,3.554 -0.274,4.997c-0.288,0.42 -0.945,2.126 -1.495,1.17c-1.521,-2.649 -1.022,-6.884 -0.349,-9.832c0.245,-1.072 0.89,-2.005 1.097,-3.088c0.342,-1.799 -0.102,-3.566 0.548,-5.264c0.498,-1.302 2.194,-2.395 2.692,-3.698c0.315,-0.824 1.033,-1.705 1.345,-2.523c0.355,-0.927 0.362,-1.704 1.141,-2.392c0.435,-0.385 1.221,-0.717 1.694,-1.131c0.549,-0.48 1.364,-1.07 2.243,-1.262c5.873,-1.282 11.608,-2.74 17.893,-2.74c2.097,0 4.282,-0.347 6.28,0.087c0.919,0.2 1.28,0.888 1.938,1.174c0.191,0.084 0.165,0.987 0.165,0.987Z" style="fill:#351616;stroke-width:0.75px;stroke:#000;"/><path d="M39.642,3.962c-1.119,1.718 -1.759,3.935 -2.761,5.04c-0.35,0.386 -0.341,1.579 -0.552,1.927c-0.089,0.146 -0.52,0.292 -0.41,0.414c0.282,0.312 1.288,1.315 1.646,1.727c0.203,0.233 0.959,-0.68 1.27,-1.012c1.272,-1.36 2.534,1.453 2.913,1.568c3.119,0.939 4.019,1.776 4.329,3.325c0.712,3.563 -0.072,4.59 1.29,6.455c1.308,1.79 1.854,5.535 2.78,7.068c0.051,0.085 0.874,0 0.987,0c1.223,0 -0.094,-1.507 0.283,-2.755c0.293,-0.965 0.257,-2.501 0.257,-3.52c0,-2.885 -0.157,-4.572 -0.967,-7.248c-0.983,-3.252 -1.893,-5.983 -3.568,-8.57c-0.514,-0.795 -1.787,-2.667 -2.65,-2.985c-0.721,-0.265 -1.506,-1.012 -2.209,-1.4c-0.434,-0.24 -2.638,-0.034 -2.638,-0.034Z" style="fill:#3e1c1c;stroke-width:0.75px;stroke:#000;"/></svg>