<?xml version="1.0" standalone="no"?><!DOCTYPE svg PUBLIC "-//W3C//DTD SVG 1.1//EN" "http://www.w3.org/Graphics/SVG/1.1/DTD/svg11.dtd"><svg width="100%" height="100%" viewBox="0 0 70 37" version="1.1" xmlns="http://www.w3.org/2000/svg" xmlns:xlink="http://www.w3.org/1999/xlink" xml:space="preserve" style="fill-rule:evenodd;clip-rule:evenodd;stroke-linecap:round;stroke-linejoin:round;stroke-miterlimit:1.41421;"><path d="M9.25,35.381c0,0 4.962,-9.695 6.922,-13.525c0.512,-1 1.299,-1.832 2.269,-2.398c2.104,-1.227 5.912,-3.448 7.865,-4.588c0.813,-0.474 1.708,-0.787 2.639,-0.921c2.656,-0.385 8.142,-1.181 8.142,-1.181c0,0 0,0 0,0c0.503,-0.073 1.016,-0.003 1.482,0.201c1.806,0.791 6.587,2.886 8.917,3.907c0.867,0.38 1.654,0.921 2.319,1.594c1.275,1.291 3.447,3.49 4.63,4.687c0.545,0.553 0.973,1.21 1.256,1.933c0.981,2.509 3.308,8.454 3.308,8.454l9.693,-8.693l-10.395,-5.306l5.987,-10.193l-12.237,3.305l3.215,-5.943l-6.464,3.477l0,-7.828l-3.281,4.695l-3.28,-6.408l-1.962,5.835l-2.418,-5.125l-3.573,6.274l-5.1,-4.918l0,4.911l-6.902,-6.216l1.36,8.395l-10.135,-7.448l2.216,10.299l-11.678,-5.685l9.672,11.277l-13.067,-5.592l9.913,9.604l-9.556,0l8.243,13.12Z" style="fill:#cda03f;stroke-width:0.75px;stroke:#000;"/></svg>