<?xml version="1.0" standalone="no"?><!DOCTYPE svg PUBLIC "-//W3C//DTD SVG 1.1//EN" "http://www.w3.org/Graphics/SVG/1.1/DTD/svg11.dtd"><svg width="100%" height="100%" viewBox="0 0 75 68" version="1.1" xmlns="http://www.w3.org/2000/svg" xmlns:xlink="http://www.w3.org/1999/xlink" xml:space="preserve" style="fill-rule:evenodd;clip-rule:evenodd;stroke-linecap:round;stroke-linejoin:round;stroke-miterlimit:1.41421;"><path d="M20.036,29.886c12.332,-1.253 23.606,-1.535 36.039,-0.411c5.23,11.022 6.339,26.821 4.113,36.905l13.689,-0.102c1.591,-16.241 -6.15,-34.627 -14.373,-44.784l-12.437,-8.745c-6.326,-0.1 -12.638,0.16 -18.955,0.285l-14.416,11.616c-8.033,11.776 -13.688,28.335 -12.988,41.73l14.903,0c-2.088,-11.154 -0.523,-26.753 4.425,-36.494Z" style="fill:#ff9645;stroke-width:0.75px;stroke:#000;"/><path d="M32.724,0l-19.199,6.431l3.762,11.228l19.198,-6.431l-3.761,-11.228Z" style="fill:#456cff;"/><path d="M41.823,8.83l-30.048,10.048l1.63,4.874l30.048,-10.048l-1.63,-4.874Z" style="fill:#456cff;"/></svg>