<?xml version="1.0" standalone="no"?>
<!DOCTYPE svg PUBLIC "-//W3C//DTD SVG 1.1//EN" "http://www.w3.org/Graphics/SVG/1.1/DTD/svg11.dtd">
<svg width="100%" height="100%" viewBox="0 0 100 120" version="1.1" xmlns="http://www.w3.org/2000/svg" xmlns:xlink="http://www.w3.org/1999/xlink" xml:space="preserve" style="fill-rule:evenodd;clip-rule:evenodd;stroke-linecap:round;stroke-linejoin:round;stroke-miterlimit:1.41421;">
    <g transform="matrix(1.496,0,0,1.2226,-44.0601,-12.3605)">
        <ellipse cx="62.874" cy="59.186" rx="23.559" ry="34.145" style="fill:white;stroke-width:0.73px;stroke:black;"/>
    </g>
    <g transform="matrix(-3.23528e-16,1.7612,-1.30978,-2.40603e-16,135.368,10.4769)">
        <path d="M30.055,69.702C27.114,69.702 24.725,73.697 24.725,78.618C24.725,83.538 27.114,87.533 30.055,87.533C27.849,86.79 26.058,83.051 26.058,78.618C26.058,74.184 27.849,70.445 30.055,69.702Z" style="fill:black;stroke-width:0.64px;stroke:black;"/>
    </g>
    <g transform="matrix(-3.23528e-16,1.7612,-1.30978,-2.40603e-16,169.819,10.4769)">
        <path d="M30.055,69.702C27.114,69.702 24.725,73.697 24.725,78.618C24.725,83.538 27.114,87.533 30.055,87.533C27.849,86.79 26.058,83.051 26.058,78.618C26.058,74.184 27.849,70.445 30.055,69.702Z" style="fill:black;stroke-width:0.64px;stroke:black;"/>
    </g>
    <g transform="matrix(1,0,0,1.33603,-0.0229225,-33.1248)">
        <ellipse cx="33.287" cy="73.602" rx="6.548" ry="3.9" style="fill:none;stroke-width:0.85px;stroke:black;"/>
    </g>
    <g transform="matrix(1,0,0,1.54463,-3.29713,-53.6877)">
        <ellipse cx="36.561" cy="76.723" rx="3.274" ry="3.121" style="fill:black;stroke-width:0.77px;stroke:black;"/>
    </g>
    <g transform="matrix(1,0,0,1.23619,33.9978,-26.1657)">
        <ellipse cx="33.287" cy="73.602" rx="6.548" ry="3.9" style="fill:none;stroke-width:0.89px;stroke:black;"/>
    </g>
    <g transform="matrix(1,0,0,1.41987,30.8986,-44.5057)">
        <ellipse cx="36.561" cy="76.723" rx="3.274" ry="3.121" style="fill:black;stroke-width:0.81px;stroke:black;"/>
    </g>
    <g transform="matrix(-0.76504,2.46056e-16,-5.28411e-16,-1.64294,57.5937,220.539)">
        <path d="M31.299,83.732L32.936,91.372L29.662,91.372L31.299,83.732Z" style="fill:black;stroke-width:0.78px;stroke:black;"/>
    </g>
    <g transform="matrix(-0.929862,2.99067e-16,-5.6119e-16,-1.74486,96.5037,229.073)">
        <path d="M31.299,83.732L32.936,91.372L29.662,91.372L31.299,83.732Z" style="fill:black;stroke-width:0.72px;stroke:black;"/>
    </g>
    <g transform="matrix(-1,3.21625e-16,-4.983e-16,-1.54932,99.5978,236.402)">
        <path d="M57.745,99.03C58.604,98.593 59.056,98.097 59.056,97.592C59.056,96.005 54.671,94.716 49.27,94.716C43.87,94.716 39.485,96.005 39.485,97.592C39.485,98.097 39.937,98.593 40.796,99.03L57.745,99.03Z" style="fill:rgb(205,40,40);"/>
    </g>
    <g transform="matrix(0.901801,0,0,0.778913,4.39159,19.0682)">
        <ellipse cx="50.938" cy="71.979" rx="7.113" ry="7.479" style="fill:rgb(205,40,40);"/>
    </g>
    <g transform="matrix(0.737271,0,0,0.5,14.6356,41.1541)">
        <ellipse cx="62.317" cy="83.637" rx="2.204" ry="2.677" style="fill:black;stroke-width:1.59px;stroke:black;"/>
    </g>
    <g transform="matrix(0.737271,0,0,0.5,-5.40243,41.1541)">
        <ellipse cx="62.317" cy="83.637" rx="2.204" ry="2.677" style="fill:black;stroke-width:1.59px;stroke:black;"/>
    </g>
    <g transform="matrix(0.993682,0,0,0.960588,0.180264,3.66933)">
        <path d="M25.752,39.001C42.3,37.262 57.427,36.871 74.11,38.431C81.128,53.73 82.615,75.66 79.628,89.656L97.997,89.515C100.131,66.972 89.744,41.451 78.711,27.353L62.022,15.215C53.535,15.075 45.066,15.437 36.589,15.61L17.246,31.733C6.466,48.08 -1.122,71.064 -0.182,89.656L19.815,89.656C17.014,74.175 19.114,52.522 25.752,39.001Z" style="fill:rgb(255,150,69);stroke-width:1.02px;stroke:black;"/>
    </g>
    <g transform="matrix(0.902165,-0.302219,0.212191,0.633419,1.28765,15.1544)">
        <rect x="17.515" y="0" width="28.374" height="23.634" style="fill:rgb(69,108,255);"/>
    </g>
    <g transform="matrix(0.948377,-0.317144,0.317144,0.948377,-8.35737,3.04918)">
        <rect x="14.496" y="29.529" width="42.245" height="6.853" style="fill:rgb(69,108,255);"/>
    </g>
</svg>
