<?xml version="1.0" standalone="no"?>
<!DOCTYPE svg PUBLIC "-//W3C//DTD SVG 1.1//EN" "http://www.w3.org/Graphics/SVG/1.1/DTD/svg11.dtd">
<svg width="100%" height="100%" viewBox="0 0 100 120" version="1.1" xmlns="http://www.w3.org/2000/svg" xmlns:xlink="http://www.w3.org/1999/xlink" xml:space="preserve" style="fill-rule:evenodd;clip-rule:evenodd;stroke-linecap:round;stroke-linejoin:round;stroke-miterlimit:1.41421;">
    <g transform="matrix(1.496,0,0,1.2226,-44.0601,-12.3605)">
        <ellipse cx="62.874" cy="59.186" rx="23.559" ry="34.145" style="fill:white;stroke-width:0.73px;stroke:black;"/>
    </g>
    <g transform="matrix(1,0,0,0.684714,2.52438,4.93349)">
        <ellipse cx="33.287" cy="73.602" rx="6.548" ry="3.9" style="fill:none;stroke-width:1.17px;stroke:black;"/>
    </g>
    <g transform="matrix(1,0,0,0.684714,29.5166,4.93349)">
        <ellipse cx="33.287" cy="73.602" rx="6.548" ry="3.9" style="fill:none;stroke-width:1.17px;stroke:black;"/>
    </g>
    <g transform="matrix(1,0,0,0.708981,26.2424,3.14739)">
        <ellipse cx="36.561" cy="76.723" rx="3.274" ry="3.121" style="fill:black;stroke-width:1.15px;stroke:black;"/>
    </g>
    <g transform="matrix(1,0,0,0.708981,-0.749821,3.14739)">
        <ellipse cx="36.561" cy="76.723" rx="3.274" ry="3.121" style="fill:black;stroke-width:1.15px;stroke:black;"/>
    </g>
    <g transform="matrix(-5.18525e-16,2.82272,-1,-1.83697e-16,114.429,-38.7331)">
        <path d="M30.055,69.702C27.114,69.702 24.725,73.697 24.725,78.618C24.725,83.538 27.114,87.533 30.055,87.533C27.849,86.79 26.058,83.051 26.058,78.618C26.058,74.184 27.849,70.445 30.055,69.702Z" style="fill:black;stroke-width:0.47px;stroke:black;"/>
    </g>
    <g transform="matrix(-5.18525e-16,2.82272,-1,-1.83697e-16,141.421,-38.7331)">
        <path d="M30.055,69.702C27.114,69.702 24.725,73.697 24.725,78.618C24.725,83.538 27.114,87.533 30.055,87.533C27.849,86.79 26.058,83.051 26.058,78.618C26.058,74.184 27.849,70.445 30.055,69.702Z" style="fill:black;stroke-width:0.47px;stroke:black;"/>
    </g>
    <g transform="matrix(1,0,0,1,1.15425,-4.99025)">
        <rect x="32.458" y="44.232" width="4.399" height="6.529" style="fill:black;"/>
    </g>
    <g transform="matrix(1,0,0,1,28.1465,-4.66542)">
        <rect x="32.458" y="44.232" width="4.399" height="6.529" style="fill:black;"/>
    </g>
    <g transform="matrix(0.667923,0,0,0.722797,10.3854,14.6279)">
        <path d="M32.612,68.013L41.359,67.573L37.01,79.54L28.263,79.387L32.612,68.013Z" style="fill:black;stroke-width:1.44px;stroke:black;"/>
    </g>
    <g transform="matrix(-0.667923,0,0,0.722797,88.229,14.6279)">
        <path d="M32.612,68.013L41.359,67.573L37.01,79.54L28.263,79.387L32.612,68.013Z" style="fill:black;stroke-width:1.44px;stroke:black;"/>
    </g>
    <g transform="matrix(1,0,0,0.935853,-0.153956,3.64499)">
        <path d="M20.148,74.663L24.938,74.663L32.612,84.59L41.359,90.927L43.29,84.311L55.255,83.853L58.001,88.804L68.352,83.278L73.524,74.663L78.124,74.663L70.473,87.657L59.319,95.074L55.255,100.187L50,102.404L43.48,99.459L41.359,96.505L32.612,91.343L20.148,74.663Z" style="fill:black;stroke-width:1.03px;stroke:black;"/>
    </g>
    <g transform="matrix(0.81286,0,0,0.671786,7.57674,20.1394)">
        <ellipse cx="50.938" cy="71.979" rx="7.113" ry="7.479" style="fill:black;"/>
    </g>
    <g transform="matrix(1,0,0,1,-0.131475,0)">
        <path d="M54.569,92.387C55.018,92.131 55.255,91.841 55.255,91.546C55.255,90.618 52.959,89.864 50.131,89.864C47.304,89.864 45.008,90.618 45.008,91.546C45.008,91.841 45.245,92.131 45.694,92.387L54.569,92.387Z" style="fill:white;"/>
    </g>
    <path d="M16.621,48.554C16.621,48.554 23.237,35.627 25.851,30.52C26.533,29.187 27.583,28.078 28.876,27.323C31.681,25.687 36.758,22.725 39.363,21.205C40.446,20.574 41.64,20.157 42.881,19.977C46.423,19.463 53.737,18.403 53.737,18.403C53.737,18.403 53.737,18.403 53.738,18.403C54.408,18.306 55.092,18.399 55.713,18.671C58.121,19.726 64.496,22.519 67.602,23.88C68.758,24.387 69.807,25.108 70.694,26.006C72.394,27.727 75.291,30.659 76.868,32.255C77.595,32.992 78.165,33.869 78.542,34.832C79.851,38.177 82.954,46.104 82.954,46.104L95.877,34.513L82.018,27.439L89.999,13.848L73.683,18.255L77.97,10.331L69.352,14.967L69.352,4.529L64.978,10.79L60.604,2.245L57.989,10.025L54.764,3.193L50,11.557L43.201,5L43.201,11.548L33.997,3.26L35.811,14.453L22.298,4.523L25.253,18.255L9.681,10.675L22.577,25.711L5.154,18.255L18.372,31.06L5.63,31.06L16.621,48.554Z" style="fill:rgb(205,160,63);stroke-width:1px;stroke:black;"/>
</svg>
