<?xml version="1.0" standalone="no"?><!DOCTYPE svg PUBLIC "-//W3C//DTD SVG 1.1//EN" "http://www.w3.org/Graphics/SVG/1.1/DTD/svg11.dtd"><svg width="100%" height="100%" viewBox="0 0 100 120" version="1.1" xmlns="http://www.w3.org/2000/svg" xmlns:xlink="http://www.w3.org/1999/xlink" xml:space="preserve" style="fill-rule:evenodd;clip-rule:evenodd;stroke-linecap:round;stroke-linejoin:round;stroke-miterlimit:1.41421;"><ellipse cx="50" cy="60" rx="35.245" ry="41.745" style="fill:#fff;stroke-width:1px;stroke:#000;"/><ellipse cx="35.811" cy="55.33" rx="6.548" ry="2.67" style="fill:none;stroke-width:1px;stroke:#000;"/><ellipse cx="62.803" cy="55.33" rx="6.548" ry="2.67" style="fill:none;stroke-width:1px;stroke:#000;"/><ellipse cx="62.803" cy="57.543" rx="3.274" ry="2.213" style="fill:#000;stroke-width:1px;stroke:#000;"/><ellipse cx="35.811" cy="57.543" rx="3.274" ry="2.213" style="fill:#000;stroke-width:1px;stroke:#000;"/><path d="M44.726,46.104c0,-8.303 -3.994,-15.044 -8.915,-15.044c-4.92,0 -8.915,6.741 -8.915,15.044c0.743,-6.227 4.482,-11.283 8.915,-11.283c4.433,0 8.172,5.056 8.915,11.283Z" style="fill:#000;stroke-width:1px;stroke:#000;"/><path d="M71.719,46.104c0,-8.303 -3.995,-15.044 -8.916,-15.044c-4.92,0 -8.915,6.741 -8.915,15.044c0.743,-6.227 4.482,-11.283 8.915,-11.283c4.434,0 8.173,5.056 8.916,11.283Z" style="fill:#000;stroke-width:1px;stroke:#000;"/><rect x="33.612" y="39.242" width="4.399" height="6.529" style="fill:#000;"/><rect x="60.604" y="39.567" width="4.399" height="6.529" style="fill:#000;"/><path d="M32.168,63.788l5.842,-0.318l-2.905,8.649l-5.842,-0.11l2.905,-8.221Z" style="fill:#000;stroke-width:1px;stroke:#000;"/><path d="M66.447,63.788l-5.843,-0.318l2.905,8.649l5.843,-0.11l-2.905,-8.221Z" style="fill:#000;stroke-width:1px;stroke:#000;"/><path d="M19.994,73.518l4.79,0l7.674,9.291l8.748,5.93l1.93,-6.191l11.965,-0.429l2.746,4.634l10.351,-5.172l5.172,-8.063l4.6,0l-7.651,12.161l-11.154,6.941l-4.064,4.785l-5.255,2.075l-6.52,-2.756l-2.12,-2.765l-8.748,-4.831l-12.464,-15.61Z" style="fill:#000;stroke-width:1px;stroke:#000;"/><ellipse cx="48.982" cy="68.494" rx="5.781" ry="5.024" style="fill:#000;"/><path d="M54.437,92.387c0.45,-0.256 0.686,-0.546 0.686,-0.841c0,-0.928 -2.295,-1.682 -5.123,-1.682c-2.828,0 -5.123,0.754 -5.123,1.682c0,0.295 0.236,0.585 0.686,0.841l8.874,0Z" style="fill:#fff;"/><path d="M16.621,48.554c0,0 6.616,-12.927 9.23,-18.034c0.682,-1.333 1.732,-2.442 3.025,-3.197c2.805,-1.636 7.882,-4.598 10.487,-6.118c1.083,-0.631 2.277,-1.048 3.518,-1.228c3.542,-0.514 10.856,-1.574 10.856,-1.574c0,0 0,0 0.001,0c0.67,-0.097 1.354,-0.004 1.975,0.268c2.408,1.055 8.783,3.848 11.889,5.209c1.156,0.507 2.205,1.228 3.092,2.126c1.7,1.721 4.597,4.653 6.174,6.249c0.727,0.737 1.297,1.614 1.674,2.577c1.309,3.345 4.412,11.272 4.412,11.272l12.923,-11.591l-13.859,-7.074l7.981,-13.591l-16.316,4.407l4.287,-7.924l-8.618,4.636l0,-10.438l-4.374,6.261l-4.374,-8.545l-2.615,7.78l-3.225,-6.832l-4.764,8.364l-6.799,-6.557l0,6.548l-9.204,-8.288l1.814,11.193l-13.513,-9.93l2.955,13.732l-15.572,-7.58l12.896,15.036l-17.423,-7.456l13.218,12.805l-12.742,0l10.991,17.494Z" style="fill:#cda03f;stroke-width:1px;stroke:#000;"/></svg>