<?xml version="1.0" standalone="no"?><!DOCTYPE svg PUBLIC "-//W3C//DTD SVG 1.1//EN" "http://www.w3.org/Graphics/SVG/1.1/DTD/svg11.dtd"><svg width="100%" height="100%" viewBox="0 0 25 23" version="1.1" xmlns="http://www.w3.org/2000/svg" xmlns:xlink="http://www.w3.org/1999/xlink" xml:space="preserve" style="fill-rule:evenodd;clip-rule:evenodd;stroke-linecap:round;stroke-linejoin:round;stroke-miterlimit:1.41421;"><g><path d="M4.715,22.02c5.482,-0.457 10.984,-0.973 16.728,-0.973" style="fill:none;stroke-width:0.75px;stroke:#000;"/><path d="M4.703,22c5.783,0 11,-0.615 16.505,-0.615" style="fill:none;stroke-width:0.75px;stroke:#000;"/></g><path d="M15.79,14.641c3.066,1.16 7.709,4.357 7.709,6.744" style="fill:none;stroke-width:0.75px;stroke:#000;"/><path d="M8.581,0.65c0,1.487 0.213,3.753 -0.782,4.681c-0.627,0.585 -0.417,2.409 -0.969,2.904c0,0 0,0 0,0c-0.187,0.169 0.187,0.886 0,1.054c-0.471,0.423 -0.122,1.32 -0.513,1.847c-0.334,0.45 -3.138,1.585 -2.225,2.814c0.342,0.461 1.13,0.695 1.417,1.084c0.189,0.256 0,1.271 0,1.595c0,1.013 0.084,2.498 0.701,3.076c1.283,1.201 4.425,1.045 5.599,-0.054c0.553,-0.518 0.37,-1.407 0.839,-1.847c0.882,-0.826 2.065,-1.231 3.006,-2.112c0.158,-0.147 0.162,-0.468 0.093,-0.819c-0.116,-0.585 -0.439,-1.252 -0.606,-1.332c-0.703,-0.337 -1.654,-1.6 -1.654,-2.747c0,-0.406 0.278,-2.266 0,-2.526c-0.137,-0.128 -0.514,-0.686 -0.514,-0.879" style="fill:none;stroke-width:0.75px;stroke:#000;"/><path d="M5.223,16.114c-2.026,0.719 -2.162,1.039 -3.408,2.338c-0.457,0.476 -1.165,0.892 -1.165,1.461" style="fill:none;stroke-width:0.75px;stroke:#000;"/></svg>