<?xml version="1.0" standalone="no"?><!DOCTYPE svg PUBLIC "-//W3C//DTD SVG 1.1//EN" "http://www.w3.org/Graphics/SVG/1.1/DTD/svg11.dtd"><svg width="100%" height="100%" viewBox="0 0 45 29" version="1.1" xmlns="http://www.w3.org/2000/svg" xmlns:xlink="http://www.w3.org/1999/xlink" xml:space="preserve" style="fill-rule:evenodd;clip-rule:evenodd;stroke-linecap:round;stroke-linejoin:round;stroke-miterlimit:1.41421;"><path d="M9.78,0.888l4.382,-0.238l-2.179,6.487l-4.382,-0.083l2.179,-6.166Z" style="fill:#000;stroke-width:0.75px;stroke:#000;"/><path d="M35.489,0.888l-4.382,-0.238l2.179,6.487l4.382,-0.083l-2.179,-6.166Z" style="fill:#000;stroke-width:0.75px;stroke:#000;"/><path d="M0.65,8.186l3.592,0l5.755,6.968l6.561,4.448l1.448,-4.644l8.974,-0.321l2.059,3.475l7.763,-3.879l3.88,-6.047l3.45,0l-5.739,9.121l-8.365,5.205l-3.048,3.589l-3.941,1.557l-4.891,-2.067l-1.59,-2.074l-6.561,-3.623l-9.347,-11.708Z" style="fill:#000;stroke-width:0.75px;stroke:#000;"/><ellipse cx="22.391" cy="4.418" rx="4.336" ry="3.768" style="fill:#000;"/><path d="M26.482,22.338c0.337,-0.192 0.515,-0.41 0.515,-0.631c0,-0.696 -1.722,-1.262 -3.843,-1.262c-2.121,0 -3.843,0.566 -3.843,1.262c0,0.221 0.178,0.439 0.515,0.631l6.656,0Z" style="fill:#fff;"/></svg>