<?xml version="1.0" standalone="no"?>
<!DOCTYPE svg PUBLIC "-//W3C//DTD SVG 1.1//EN" "http://www.w3.org/Graphics/SVG/1.1/DTD/svg11.dtd">
<svg width="100%" height="100%" viewBox="0 0 100 120" version="1.1" xmlns="http://www.w3.org/2000/svg" xmlns:xlink="http://www.w3.org/1999/xlink" xml:space="preserve" style="fill-rule:evenodd;clip-rule:evenodd;stroke-linecap:round;stroke-linejoin:round;stroke-miterlimit:1.41421;">
    <g transform="matrix(1.496,0,0,1.2226,-44.0601,-12.3605)">
        <ellipse cx="62.874" cy="59.186" rx="23.559" ry="34.145" style="fill:white;stroke-width:0.73px;stroke:black;"/>
    </g>
    <g transform="matrix(0.916249,0.400609,-0.400609,0.916249,22.3421,-8.10453)">
        <path d="M22.399,35.365C22.399,32.593 19.559,32.024 17.719,31.409C17.386,31.298 15.417,30.876 15.081,31.211C14.777,31.516 14.619,33.607 14.166,33.453C12.736,32.969 11.195,32.529 9.814,32.069C9.577,31.989 8.506,31.626 8.166,31.871C7.787,32.144 7.77,34.797 7.77,35.291C7.77,35.733 7.902,36.61 7.902,36.61C7.902,36.61 6.73,36.429 6.188,36.61C4.662,37.119 3.728,37.591 3.221,39.115C3.014,39.739 2.938,42.304 3.221,42.874C3.521,43.475 4.251,43.124 4.648,43.335C4.939,43.49 4.237,43.852 4.054,44.126C3.661,44.717 3.233,45.298 2.868,45.906C1.869,47.567 1.849,48.998 1.849,50.9C1.849,52.943 5.102,51.843 5.102,50.793C5.102,50.598 5.129,51.185 5.102,51.379C4.983,52.208 4.809,52.935 4.706,53.753C4.572,54.826 3.172,58.128 4.244,59.093C4.963,59.74 6.697,59.488 7.409,59.488C7.635,59.488 7.197,59.888 7.08,60.082C6.668,60.761 6.598,60.641 6.288,61.466C5.956,62.352 4.75,64.555 5.168,65.597C5.733,67.007 9.031,65.209 9.511,65.209C9.511,65.209 9.511,67.565 9.511,67.772C9.511,68.887 9.161,70.68 9.511,71.728C10.095,73.479 12.644,71.206 13.071,70.608C13.614,69.848 12.921,68.141 13.401,67.64C13.508,67.529 14.063,68.644 14.184,68.827C14.786,69.728 15.594,70.332 16.558,70.608C17.49,70.874 18.781,70.71 19.195,69.882C19.282,69.709 19.061,69.162 19.195,69.033C19.229,69.001 21.544,69.824 21.965,69.824C22.806,69.824 23.798,69.969 24.272,69.494C24.491,69.276 24.054,68.402 24.272,68.184C24.465,67.991 24.871,68.381 25.055,68.381C26.48,68.381 26.738,68.247 26.738,66.831" style="fill:rgb(255,11,0);stroke-width:1px;stroke:black;"/>
    </g>
    <g transform="matrix(-0.916249,0.400609,0.400609,0.916249,78.4557,-6.95194)">
        <path d="M22.399,35.365C22.399,32.593 19.559,32.024 17.719,31.409C17.386,31.298 15.417,30.876 15.081,31.211C14.777,31.516 14.619,33.607 14.166,33.453C12.736,32.969 11.195,32.529 9.814,32.069C9.577,31.989 8.506,31.626 8.166,31.871C7.787,32.144 7.77,34.797 7.77,35.291C7.77,35.733 7.902,36.61 7.902,36.61C7.902,36.61 6.73,36.429 6.188,36.61C4.662,37.119 3.728,37.591 3.221,39.115C3.014,39.739 2.938,42.304 3.221,42.874C3.521,43.475 4.251,43.124 4.648,43.335C4.939,43.49 4.237,43.852 4.054,44.126C3.661,44.717 3.233,45.298 2.868,45.906C1.869,47.567 1.849,48.998 1.849,50.9C1.849,52.943 5.102,51.843 5.102,50.793C5.102,50.598 5.129,51.185 5.102,51.379C4.983,52.208 4.809,52.935 4.706,53.753C4.572,54.826 3.172,58.128 4.244,59.093C4.963,59.74 6.697,59.488 7.409,59.488C7.635,59.488 7.197,59.888 7.08,60.082C6.668,60.761 6.598,60.641 6.288,61.466C5.956,62.352 4.75,64.555 5.168,65.597C5.733,67.007 9.031,65.209 9.511,65.209C9.511,65.209 9.511,67.565 9.511,67.772C9.511,68.887 9.161,70.68 9.511,71.728C10.095,73.479 12.644,71.206 13.071,70.608C13.614,69.848 12.921,68.141 13.401,67.64C13.508,67.529 14.063,68.644 14.184,68.827C14.786,69.728 15.594,70.332 16.558,70.608C17.49,70.874 18.781,70.71 19.195,69.882C19.282,69.709 19.061,69.162 19.195,69.033C19.229,69.001 21.544,69.824 21.965,69.824C22.806,69.824 23.798,69.969 24.272,69.494C24.491,69.276 24.054,68.402 24.272,68.184C24.465,67.991 24.871,68.381 25.055,68.381C26.48,68.381 26.738,68.247 26.738,66.831" style="fill:rgb(255,11,0);stroke-width:1px;stroke:black;"/>
    </g>
    <g transform="matrix(-0.475374,0.610966,-1.06749,-0.830583,108.407,57.981)">
        <path d="M41.861,37.315C38.416,37.315 35.619,41.521 35.619,46.702C35.619,51.883 38.416,56.09 41.861,56.09C40.827,53.899 39.988,50.447 39.988,46.702C39.988,42.957 40.827,39.505 41.861,37.315Z" style="fill:black;"/>
    </g>
    <g transform="matrix(0.475374,0.610966,1.06749,-0.830583,-6.93338,57.981)">
        <path d="M41.861,37.315C38.416,37.315 35.619,41.521 35.619,46.702C35.619,51.883 38.416,56.09 41.861,56.09C40.999,53.743 40.3,50.344 40.3,46.702C40.3,43.06 40.999,39.661 41.861,37.315Z" style="fill:black;"/>
    </g>
    <g transform="matrix(1.05191,0,0,1,-2.62802,-5.66385)">
        <ellipse cx="36.759" cy="56.071" rx="7.802" ry="9.882" style="fill:black;"/>
    </g>
    <g transform="matrix(1.05191,0,0,1,26.1347,-5.66385)">
        <ellipse cx="36.759" cy="56.071" rx="7.802" ry="9.882" style="fill:black;"/>
    </g>
    <g transform="matrix(1.05191,0,0,1,-2.62802,-5.66385)">
        <ellipse cx="36.759" cy="56.071" rx="7.802" ry="9.882" style="fill:black;"/>
    </g>
    <g transform="matrix(1,0,0,-1,-2.1327,140.825)">
        <path d="M38.172,66.483L40.726,82.536L35.619,82.536L38.172,66.483Z" style="fill:black;"/>
    </g>
    <g transform="matrix(1,0,0,1,-2.1327,-40.6277)">
        <path d="M38.172,66.483L40.726,82.536L35.619,82.536L38.172,66.483Z" style="fill:black;"/>
    </g>
    <g transform="matrix(1,0,0,1,26.63,-40.6277)">
        <path d="M38.172,66.483L40.726,82.536L35.619,82.536L38.172,66.483Z" style="fill:black;"/>
    </g>
    <g transform="matrix(1,0,0,-1,26.63,140.825)">
        <path d="M38.172,66.483L40.726,82.536L35.619,82.536L38.172,66.483Z" style="fill:black;"/>
    </g>
    <g transform="matrix(1.2254,0,0,1.16139,-11.8956,-14.6208)">
        <ellipse cx="50.938" cy="71.979" rx="7.113" ry="7.479" style="fill:black;"/>
    </g>
    <g transform="matrix(1,0,0,1,0.420902,0.28898)">
        <path d="M59.962,90.952C60.987,90.061 61.527,89.05 61.527,88.02C61.527,84.784 56.294,82.157 49.849,82.157C43.405,82.157 38.172,84.784 38.172,88.02C38.172,89.05 38.712,90.061 39.737,90.952L59.962,90.952Z" style="fill:black;"/>
    </g>
</svg>
