<?xml version="1.0" standalone="no"?>
<!DOCTYPE svg PUBLIC "-//W3C//DTD SVG 1.1//EN" "http://www.w3.org/Graphics/SVG/1.1/DTD/svg11.dtd">
<svg width="100%" height="100%" viewBox="0 0 100 120" version="1.1" xmlns="http://www.w3.org/2000/svg" xmlns:xlink="http://www.w3.org/1999/xlink" xml:space="preserve" style="fill-rule:evenodd;clip-rule:evenodd;stroke-linecap:round;stroke-linejoin:round;stroke-miterlimit:1.41421;">
    <g transform="matrix(1.40785,0,0,1.2226,-37.7827,-12.3605)">
        <ellipse cx="62.874" cy="59.186" rx="23.559" ry="34.145" style="fill:white;stroke-width:0.76px;stroke:black;"/>
    </g>
    <g transform="matrix(0.972843,0,0,0.849091,3.43665,1.94973)">
        <path d="M64.765,16.604C67.164,19.086 63.569,16.552 64.806,18.581C65.962,20.479 61.526,28.227 60.388,28.783C59.475,29.231 59.549,28.046 58.743,28.449C58.15,28.744 57.187,30.106 56.545,30.106C54.249,30.106 52.087,31.217 49.987,31.918C48.391,32.451 46.842,31.209 45.345,31.958C44.766,32.248 39.845,32.264 39.217,32.452C33.636,34.122 32.26,25.798 27.992,30.059C25.102,32.943 20.135,39.946 20.178,43.898C20.193,45.349 18.568,45.492 17.916,46.798C17.348,47.936 17.097,52.201 16.907,53.53C16.454,56.699 17.893,59.11 16.533,61.377C16.137,62.036 15.237,64.715 14.483,63.213C12.398,59.054 13.082,52.403 14.005,47.775C14.341,46.091 15.225,44.626 15.508,42.925C15.977,40.1 15.369,37.326 16.259,34.659C16.942,32.615 19.266,30.898 19.949,28.853C20.38,27.558 21.364,26.174 21.793,24.891C22.279,23.434 22.288,22.215 23.356,21.134C23.952,20.529 25.03,20.008 25.678,19.358C26.431,18.604 27.547,17.678 28.752,17.377C36.801,15.363 44.662,13.074 53.275,13.074C56.149,13.074 59.144,12.529 61.882,13.21C63.142,13.524 63.637,14.605 64.538,15.055C64.801,15.185 64.765,16.604 64.765,16.604Z" style="fill:rgb(53,22,22);stroke-width:1.1px;stroke:black;"/>
    </g>
    <g transform="matrix(1.07761,0,0,1.18872,-4.6667,-2.93894)">
        <path d="M67.604,17.019C66.22,18.946 65.428,21.432 64.189,22.672C63.756,23.105 63.767,24.443 63.505,24.834C63.396,24.998 62.862,25.161 62.998,25.298C63.348,25.647 64.592,26.773 65.035,27.235C65.286,27.497 66.222,26.473 66.607,26.099C68.181,24.574 69.742,27.73 70.211,27.858C74.07,28.912 75.183,29.85 75.567,31.588C76.448,35.585 75.478,36.736 77.163,38.829C78.781,40.837 79.456,45.037 80.602,46.756C80.666,46.852 81.684,46.756 81.824,46.756C83.338,46.756 81.707,45.066 82.175,43.667C82.536,42.584 82.492,40.861 82.492,39.718C82.492,36.482 82.298,34.59 81.296,31.588C80.079,27.94 78.953,24.878 76.881,21.975C76.245,21.084 74.67,18.984 73.602,18.628C72.709,18.33 71.739,17.492 70.869,17.057C70.331,16.788 67.604,17.019 67.604,17.019Z" style="fill:rgb(62,28,28);stroke-width:0.88px;stroke:black;"/>
    </g>
    <path d="M41.69,46.798L42.1,51.403L27.634,60.128C27.634,60.128 29.726,56.208 31.125,53.585C31.927,52.082 33.176,50.866 34.7,50.106C37.356,48.779 41.324,46.798 41.324,46.798" style="fill:black;stroke-width:1px;stroke:black;"/>
    <path d="M50,46.798L50,51.144L66.763,57.924C66.763,57.924 63.434,53.742 61.389,51.173C60.377,49.902 58.972,49.002 57.394,48.615C54.484,47.9 50,46.798 50,46.798Z" style="fill:black;stroke-width:1px;stroke:black;"/>
    <g transform="matrix(1,0,0,0.713753,-0.691598,15.3549)">
        <path d="M44.042,60C44.042,60 37.783,60.088 35.604,60.118C35.134,60.125 34.686,60.403 34.367,60.887C33.268,62.557 30.738,66.4 30.738,66.4L34.867,64.853L44.042,60Z" style="fill:none;stroke-width:1.15px;stroke:black;"/>
    </g>
    <g transform="matrix(1,0,0,0.5,0,28.2965)">
        <path d="M50,60C50,60 53.799,62.307 55.369,63.259C55.81,63.527 56.269,63.664 56.731,63.664C58.569,63.664 63.413,63.664 63.413,63.664C63.413,63.664 60.127,61.271 58.866,60.353C58.545,60.119 58.207,60 57.866,60C56.041,60 50,60 50,60" style="fill:none;stroke-width:1.26px;stroke:black;"/>
    </g>
    <g transform="matrix(1,0,0,1,0,-1.70354)">
        <ellipse cx="35.312" cy="61.374" rx="1.387" ry="1.374" style="fill:black;"/>
    </g>
    <g transform="matrix(0.5,0,0,0.831161,39.7439,8.31044)">
        <ellipse cx="35.312" cy="61.374" rx="1.387" ry="1.374" style="fill:black;"/>
    </g>
    <g>
        <path d="M38.367,84.5C45.677,83.891 53.014,83.202 60.672,83.202" style="fill:none;stroke-width:1px;stroke:black;"/>
        <path d="M38.351,84.473C46.063,84.473 53.019,83.653 60.358,83.653" style="fill:none;stroke-width:1px;stroke:black;"/>
    </g>
    <g transform="matrix(1.42287,0,0,0.956396,-29.7389,1.51341)">
        <path d="M58.243,76.483C61.116,78.1 65.467,82.557 65.467,85.885" style="fill:none;stroke-width:0.82px;stroke:black;"/>
    </g>
    <g transform="matrix(1.27139,0,0,1.19029,-13.0499,-15.7046)">
        <path d="M44.497,60.246C44.497,61.912 44.72,64.451 43.677,65.49C43.019,66.145 43.239,68.189 42.66,68.744C42.66,68.744 42.66,68.744 42.66,68.744C42.464,68.932 42.857,69.736 42.66,69.924C42.166,70.398 42.532,71.403 42.122,71.993C41.772,72.497 38.831,73.768 39.788,75.146C40.147,75.662 40.974,75.924 41.275,76.359C41.473,76.646 41.275,77.783 41.275,78.146C41.275,79.281 41.363,80.944 42.01,81.591C43.355,82.937 46.651,82.762 47.882,81.531C48.462,80.951 48.27,79.955 48.762,79.463C49.687,78.537 50.927,78.084 51.914,77.097C52.079,76.932 52.084,76.572 52.011,76.179C51.889,75.523 51.551,74.776 51.377,74.687C50.639,74.31 49.641,72.895 49.641,71.61C49.641,71.155 49.933,69.071 49.641,68.78C49.498,68.636 49.103,68.012 49.103,67.796" style="fill:none;stroke-width:0.81px;stroke:black;"/>
    </g>
    <g transform="matrix(1,0,0,1,-1.29794,0.208067)">
        <path d="M40.343,76.417C37.641,77.376 37.46,77.802 35.799,79.534C35.19,80.17 34.245,80.724 34.245,81.482" style="fill:none;stroke-width:1px;stroke:black;"/>
    </g>
</svg>
